# xmcd
#
# Track frame offsets:
#	150
#	17509
#	37169
#	53074
#	66866
#	85498
#	103097
#	120435
#	136864
#	154812
#	170263
#	189541
#	208211
#	221803
#
# Disc length: 3181 seconds
#
# Revision: 1
# Processed by: cddbd v1.5.2PL0 Copyright (c) Steve Scherf et al.
# Submitted via: audiograbber 1.83.01
#
DISCID=c80c6b0e
DTITLE=Tim McGraw - Damn Country Music (Deluxe)
DYEAR=2015
DGENRE=Country
TTITLE0=Here Tonight (feat. Gracie McGraw)
TTITLE1=Losin' You
TTITLE2=How I'll Always Be
TTITLE3=Damn Country Music
TTITLE4=Love Runs
TTITLE5=What You're Looking For
TTITLE6=Top of the World
TTITLE7=Don't Make Me Feel At Home
TTITLE8=Want You Back
TTITLE9=California (with Big Rich)
TTITLE10=Humble and Kind
TTITLE11=Everybody's Lookin'
TTITLE12=Kiss a Girl
TTITLE13=Country and Western
EXTD=
EXTT0=
EXTT1=
EXTT2=
EXTT3=
EXTT4=
EXTT5=
EXTT6=
EXTT7=
EXTT8=
EXTT9=
EXTT10=
EXTT11=
EXTT12=
EXTT13=
PLAYORDER=
